# xmcd CD database file
#
# Track frame offsets:
#	182
#	19005
#	52025
#	68740
#	82642
#	103275
#	119502
#	136882
#	153070
#	172040
#	192422
#
# Disc length: 2748 seconds
#
# Revision: 3
# Processed by: cddbd v1.5.1PL2 Copyright (c) Steve Scherf et al.
# Submitted via: CDex 1.40Release
#
DISCID=8d0aba0b
DTITLE=The Hamsters - Electric Hamsterland
DYEAR=1990
DGENRE=Rock
TTITLE0=Purple Haze
TTITLE1=Voodo Chile
TTITLE2=Fire
TTITLE3=Little Wing
TTITLE4=Spanish Castle Magic
TTITLE5=Foxy Lady
TTITLE6=Stone Free
TTITLE7=The Wind Cries Mary
TTITLE8=All Along The Watchtower
TTITLE9=Hey Joe
TTITLE10=Star Spangled Banner
EXTD=YEAR: 1990 ID3G: 17
EXTT0=
EXTT1=
EXTT2=
EXTT3=
EXTT4=
EXTT5=
EXTT6=
EXTT7=
EXTT8=
EXTT9=
EXTT10=
PLAYORDER=
